<svg width="56" height="56" viewBox="0 0 56 56" fill="none" xmlns="http://www.w3.org/2000/svg">
<g id="fi-rr-plus-small">
<path id="Vector" d="M39.6667 25.6667H30.3333V16.3333C30.3333 15.7145 30.0875 15.121 29.6499 14.6834C29.2123 14.2458 28.6188 14 28 14C27.3812 14 26.7877 14.2458 26.3501 14.6834C25.9125 15.121 25.6667 15.7145 25.6667 16.3333V25.6667H16.3333C15.7145 25.6667 15.121 25.9125 14.6834 26.3501C14.2458 26.7877 14 27.3812 14 28C14 28.6188 14.2458 29.2123 14.6834 29.6499C15.121 30.0875 15.7145 30.3333 16.3333 30.3333H25.6667V39.6667C25.6667 40.2855 25.9125 40.879 26.3501 41.3166C26.7877 41.7542 27.3812 42 28 42C28.6188 42 29.2123 41.7542 29.6499 41.3166C30.0875 40.879 30.3333 40.2855 30.3333 39.6667V30.3333H39.6667C40.2855 30.3333 40.879 30.0875 41.3166 29.6499C41.7542 29.2123 42 28.6188 42 28C42 27.3812 41.7542 26.7877 41.3166 26.3501C40.879 25.9125 40.2855 25.6667 39.6667 25.6667Z" fill="white"/>
</g>
</svg>
